<?xml version="1.0" encoding="UTF-8" standalone="no"?>
<!-- Created with Inkscape (http://www.inkscape.org/) -->

<svg
   xmlns:dc="http://purl.org/dc/elements/1.1/"
   xmlns:cc="http://creativecommons.org/ns#"
   xmlns:rdf="http://www.w3.org/1999/02/22-rdf-syntax-ns#"
   xmlns:svg="http://www.w3.org/2000/svg"
   xmlns="http://www.w3.org/2000/svg"
   xmlns:sodipodi="http://sodipodi.sourceforge.net/DTD/sodipodi-0.dtd"
   xmlns:inkscape="http://www.inkscape.org/namespaces/inkscape"
   height="744.09448"
   id="svg2"
   inkscape:output_extension="org.inkscape.output.svg.inkscape"
   inkscape:version="0.47pre0 r21549"
   sodipodi:docname="keyboard.svg"
   sodipodi:version="0.32"
   version="1.0"
   width="1052.3622">
  <defs
     id="defs4">
    <inkscape:perspective
       sodipodi:type="inkscape:persp3d"
       inkscape:vp_x="0 : 372.04724 : 1"
       inkscape:vp_y="0 : 1000 : 0"
       inkscape:vp_z="1052.3622 : 372.04724 : 1"
       inkscape:persp3d-origin="526.18109 : 248.03149 : 1"
       id="perspective154" />
    <marker
       id="Arrow1Lend"
       inkscape:stockid="Arrow1Lend"
       orient="auto"
       refX="0"
       refY="0"
       style="overflow:visible">
      <path
         d="M 0,0 L 5,-5 L -12.5,0 L 5,5 L 0,0 z "
         id="path5387"
         style="fill-rule:evenodd;stroke:#000000;stroke-width:1pt;marker-start:none"
         transform="scale(-0.8,-0.8)" />
    </marker>
    <marker
       id="Arrow1Lstart"
       inkscape:stockid="Arrow1Lstart"
       orient="auto"
       refX="0"
       refY="0"
       style="overflow:visible">
      <path
         d="M 0,0 L 5,-5 L -12.5,0 L 5,5 L 0,0 z "
         id="path5390"
         style="fill-rule:evenodd;stroke:#000000;stroke-width:1pt;marker-start:none"
         transform="scale(0.8,0.8)" />
    </marker>
    <marker
       id="Tail"
       inkscape:stockid="Tail"
       orient="auto"
       refX="0"
       refY="0"
       style="overflow:visible">
      <g
         id="g5342"
         transform="scale(-1.2,-1.2)">
        <path
           d="M -3.8048674,-3.9585227 L 0.54352094,-0.00068114835"
           id="path5344"
           style="fill:none;fill-rule:evenodd;stroke:#000000;stroke-width:0.80000001;stroke-linecap:round;marker-start:none;marker-end:none" />
        <path
           d="M -1.2866832,-3.9585227 L 3.0617053,-0.00068114835"
           id="path5346"
           style="fill:none;fill-rule:evenodd;stroke:#000000;stroke-width:0.80000001;stroke-linecap:round;marker-start:none;marker-end:none" />
        <path
           d="M 1.3053582,-3.9585227 L 5.6537466,-0.00068114835"
           id="path5348"
           style="fill:none;fill-rule:evenodd;stroke:#000000;stroke-width:0.80000001;stroke-linecap:round;marker-start:none;marker-end:none" />
        <path
           d="M -3.8048674,4.1775838 L 0.54352094,0.21974226"
           id="path5350"
           style="fill:none;fill-rule:evenodd;stroke:#000000;stroke-width:0.80000001;stroke-linecap:round;marker-start:none;marker-end:none" />
        <path
           d="M -1.2866832,4.1775838 L 3.0617053,0.21974226"
           id="path5352"
           style="fill:none;fill-rule:evenodd;stroke:#000000;stroke-width:0.80000001;stroke-linecap:round;marker-start:none;marker-end:none" />
        <path
           d="M 1.3053582,4.1775838 L 5.6537466,0.21974226"
           id="path5354"
           style="fill:none;fill-rule:evenodd;stroke:#000000;stroke-width:0.80000001;stroke-linecap:round;marker-start:none;marker-end:none" />
      </g>
    </marker>
    <marker
       id="Arrow2Mend"
       inkscape:stockid="Arrow2Mend"
       orient="auto"
       refX="0"
       refY="0"
       style="overflow:visible">
      <path
         d="M 8.7185878,4.0337352 L -2.2072895,0.016013256 L 8.7185884,-4.0017078 C 6.97309,-1.6296469 6.9831476,1.6157441 8.7185878,4.0337352 z "
         id="path5363"
         style="font-size:12px;fill-rule:evenodd;stroke-width:0.625;stroke-linejoin:round"
         transform="matrix(-0.6,0,0,-0.6,3,0)" />
    </marker>
    <marker
       id="Arrow2Lend"
       inkscape:stockid="Arrow2Lend"
       orient="auto"
       refX="0"
       refY="0"
       style="overflow:visible">
      <path
         d="M 8.7185878,4.0337352 L -2.2072895,0.016013256 L 8.7185884,-4.0017078 C 6.97309,-1.6296469 6.9831476,1.6157441 8.7185878,4.0337352 z "
         id="path5369"
         style="font-size:12px;fill-rule:evenodd;stroke-width:0.625;stroke-linejoin:round"
         transform="matrix(-1.1,0,0,-1.1,5.5,0)" />
    </marker>
    <marker
       id="Arrow1Send"
       inkscape:stockid="Arrow1Send"
       orient="auto"
       refX="0"
       refY="0"
       style="overflow:visible">
      <path
         d="M 0,0 L 5,-5 L -12.5,0 L 5,5 L 0,0 z "
         id="path5375"
         style="fill-rule:evenodd;stroke:#000000;stroke-width:1pt;marker-start:none"
         transform="scale(-0.2,-0.2)" />
    </marker>
    <marker
       id="Arrow2Send"
       inkscape:stockid="Arrow2Send"
       orient="auto"
       refX="0"
       refY="0"
       style="overflow:visible">
      <path
         d="M 8.7185878,4.0337352 L -2.2072895,0.016013256 L 8.7185884,-4.0017078 C 6.97309,-1.6296469 6.9831476,1.6157441 8.7185878,4.0337352 z "
         id="path5357"
         style="font-size:12px;fill-rule:evenodd;stroke-width:0.625;stroke-linejoin:round"
         transform="matrix(-0.3,0,0,-0.3,1.5,0)" />
    </marker>
    <marker
       id="Arrow1Mend"
       inkscape:stockid="Arrow1Mend"
       orient="auto"
       refX="0"
       refY="0"
       style="overflow:visible">
      <path
         d="M 0,0 L 5,-5 L -12.5,0 L 5,5 L 0,0 z "
         id="path5381"
         style="fill-rule:evenodd;stroke:#000000;stroke-width:1pt;marker-start:none"
         transform="scale(-0.4,-0.4)" />
    </marker>
    <marker
       id="Arrow2Lstart"
       inkscape:stockid="Arrow2Lstart"
       orient="auto"
       refX="0"
       refY="0"
       style="overflow:visible">
      <path
         d="M 8.7185878,4.0337352 L -2.2072895,0.016013256 L 8.7185884,-4.0017078 C 6.97309,-1.6296469 6.9831476,1.6157441 8.7185878,4.0337352 z "
         id="path5372"
         style="font-size:12px;fill-rule:evenodd;stroke-width:0.625;stroke-linejoin:round"
         transform="matrix(1.1,0,0,1.1,-5.5,0)" />
    </marker>
    <marker
       style="overflow:visible"
       id="marker2452"
       refX="0.0"
       refY="0.0"
       orient="auto"
       inkscape:stockid="Arrow2Lstart">
      <path
         transform="scale(1.1) translate(-5,0)"
         d="M 8.7185878,4.0337352 L -2.2072895,0.016013256 L 8.7185884,-4.0017078 C 6.9730900,-1.6296469 6.9831476,1.6157441 8.7185878,4.0337352 z "
         style="font-size:12.0;fill-rule:evenodd;stroke-width:0.62500000;stroke-linejoin:round"
         id="path2454" />
    </marker>
    <marker
       style="overflow:visible;"
       id="marker2448"
       refX="0.0"
       refY="0.0"
       orient="auto"
       inkscape:stockid="Arrow1Mend">
      <path
         transform="scale(0.4) rotate(180)"
         style="fill-rule:evenodd;stroke:#000000;stroke-width:1.0pt;marker-start:none;"
         d="M 0.0,0.0 L 5.0,-5.0 L -12.5,0.0 L 5.0,5.0 L 0.0,0.0 z "
         id="path2450" />
    </marker>
    <marker
       style="overflow:visible;"
       id="marker2444"
       refX="0.0"
       refY="0.0"
       orient="auto"
       inkscape:stockid="Arrow2Send">
      <path
         transform="scale(0.3) rotate(180) translate(-5,0)"
         d="M 8.7185878,4.0337352 L -2.2072895,0.016013256 L 8.7185884,-4.0017078 C 6.9730900,-1.6296469 6.9831476,1.6157441 8.7185878,4.0337352 z "
         style="font-size:12.0;fill-rule:evenodd;stroke-width:0.62500000;stroke-linejoin:round;"
         id="path2446" />
    </marker>
    <marker
       style="overflow:visible;"
       id="marker2440"
       refX="0.0"
       refY="0.0"
       orient="auto"
       inkscape:stockid="Arrow1Send">
      <path
         transform="scale(0.2) rotate(180)"
         style="fill-rule:evenodd;stroke:#000000;stroke-width:1.0pt;marker-start:none;"
         d="M 0.0,0.0 L 5.0,-5.0 L -12.5,0.0 L 5.0,5.0 L 0.0,0.0 z "
         id="path2442" />
    </marker>
    <marker
       style="overflow:visible;"
       id="marker2436"
       refX="0.0"
       refY="0.0"
       orient="auto"
       inkscape:stockid="Arrow2Lend">
      <path
         transform="scale(1.1) rotate(180) translate(-5,0)"
         d="M 8.7185878,4.0337352 L -2.2072895,0.016013256 L 8.7185884,-4.0017078 C 6.9730900,-1.6296469 6.9831476,1.6157441 8.7185878,4.0337352 z "
         style="font-size:12.0;fill-rule:evenodd;stroke-width:0.62500000;stroke-linejoin:round;"
         id="path2438" />
    </marker>
    <marker
       style="overflow:visible;"
       id="marker2432"
       refX="0.0"
       refY="0.0"
       orient="auto"
       inkscape:stockid="Arrow2Mend">
      <path
         transform="scale(0.6) rotate(180) translate(-5,0)"
         d="M 8.7185878,4.0337352 L -2.2072895,0.016013256 L 8.7185884,-4.0017078 C 6.9730900,-1.6296469 6.9831476,1.6157441 8.7185878,4.0337352 z "
         style="font-size:12.0;fill-rule:evenodd;stroke-width:0.62500000;stroke-linejoin:round;"
         id="path2434" />
    </marker>
    <marker
       style="overflow:visible"
       id="marker2416"
       refX="0.0"
       refY="0.0"
       orient="auto"
       inkscape:stockid="Tail">
      <g
         transform="scale(-1.2)"
         id="g2418">
        <path
           style="fill:none;fill-rule:evenodd;stroke:#000000;stroke-width:0.8;marker-start:none;marker-end:none;stroke-linecap:round"
           d="M -3.8048674,-3.9585227 L 0.54352094,-0.00068114835"
           id="path2420" />
        <path
           style="fill:none;fill-rule:evenodd;stroke:#000000;stroke-width:0.8;marker-start:none;marker-end:none;stroke-linecap:round"
           d="M -1.2866832,-3.9585227 L 3.0617053,-0.00068114835"
           id="path2422" />
        <path
           style="fill:none;fill-rule:evenodd;stroke:#000000;stroke-width:0.8;marker-start:none;marker-end:none;stroke-linecap:round"
           d="M 1.3053582,-3.9585227 L 5.6537466,-0.00068114835"
           id="path2424" />
        <path
           style="fill:none;fill-rule:evenodd;stroke:#000000;stroke-width:0.8;marker-start:none;marker-end:none;stroke-linecap:round"
           d="M -3.8048674,4.1775838 L 0.54352094,0.21974226"
           id="path2426" />
        <path
           style="fill:none;fill-rule:evenodd;stroke:#000000;stroke-width:0.8;marker-start:none;marker-end:none;stroke-linecap:round"
           d="M -1.2866832,4.1775838 L 3.0617053,0.21974226"
           id="path2428" />
        <path
           style="fill:none;fill-rule:evenodd;stroke:#000000;stroke-width:0.8;marker-start:none;marker-end:none;stroke-linecap:round"
           d="M 1.3053582,4.1775838 L 5.6537466,0.21974226"
           id="path2430" />
      </g>
    </marker>
    <marker
       style="overflow:visible"
       id="marker2412"
       refX="0.0"
       refY="0.0"
       orient="auto"
       inkscape:stockid="Arrow1Lstart">
      <path
         transform="scale(0.8)"
         style="fill-rule:evenodd;stroke:#000000;stroke-width:1.0pt;marker-start:none"
         d="M 0.0,0.0 L 5.0,-5.0 L -12.5,0.0 L 5.0,5.0 L 0.0,0.0 z "
         id="path2414" />
    </marker>
    <marker
       style="overflow:visible;"
       id="marker2408"
       refX="0.0"
       refY="0.0"
       orient="auto"
       inkscape:stockid="Arrow1Lend">
      <path
         transform="scale(0.8) rotate(180)"
         style="fill-rule:evenodd;stroke:#000000;stroke-width:1.0pt;marker-start:none;"
         d="M 0.0,0.0 L 5.0,-5.0 L -12.5,0.0 L 5.0,5.0 L 0.0,0.0 z "
         id="path2410" />
    </marker>
    <inkscape:perspective
       id="perspective4328"
       inkscape:persp3d-origin="0.5 : 0.33333333 : 1"
       inkscape:vp_z="1 : 0.5 : 1"
       inkscape:vp_y="0 : 1000 : 0"
       inkscape:vp_x="0 : 0.5 : 1"
       sodipodi:type="inkscape:persp3d" />
  </defs>
  <sodipodi:namedview
     bordercolor="#666666"
     borderlayer="true"
     borderopacity="1.0"
     gridtolerance="15px"
     height="744.09449px"
     id="base"
     inkscape:current-layer="g2588"
     inkscape:cx="510"
     inkscape:cy="479.88281"
     inkscape:document-units="px"
     inkscape:grid-points="true"
     inkscape:guide-bbox="true"
     inkscape:pageopacity="0.0"
     inkscape:pageshadow="2"
     inkscape:window-height="774"
     inkscape:window-width="1258"
     inkscape:window-x="1987"
     inkscape:window-y="35"
     inkscape:zoom="1.2815534"
     pagecolor="#ffffff"
     showborder="true"
     showgrid="true"
     showguides="true"
     width="1052.3622px"
     inkscape:window-maximized="0">
    <inkscape:grid
       id="GridFromPre046Settings"
       type="xygrid"
       originx="0px"
       originy="0px"
       spacingx="7.5px"
       spacingy="7.5px"
       color="#0000ff"
       empcolor="#0000ff"
       opacity="0.12156863"
       empopacity="0.25098039"
       empspacing="4"
       visible="true"
       enabled="true" />
  </sodipodi:namedview>
  <metadata
     id="metadata7">
    <rdf:RDF>
      <cc:Work
         rdf:about="">
        <dc:format>
					image/svg+xml
				</dc:format>
        <dc:type
           rdf:resource="http://purl.org/dc/dcmitype/StillImage" />
        <dc:title></dc:title>
      </cc:Work>
    </rdf:RDF>
  </metadata>
  <g
     id="keybase"
     inkscape:groupmode="layer"
     inkscape:label="Key Base" />
  <g
     id="keys"
     inkscape:groupmode="layer"
     inkscape:label="Keys" />
  <g
     inkscape:groupmode="layer"
     id="labels"
     inkscape:label="labels">
    <g
       id="g2588"
       transform="translate(60,144.09448)">
      <rect
         y="0"
         x="780"
         width="120"
         style="fill:#000000;fill-opacity:0.12549020000000000;fill-rule:evenodd;stroke:#000000;stroke-width:1.25;stroke-linecap:butt;stroke-linejoin:miter;stroke-miterlimit:4;stroke-dashoffset:0;stroke-opacity:1;stroke-dasharray:none"
         id="rect_back"
         height="60" />
      <rect
         y="60"
         x="0"
         width="90"
         style="fill:#000000;fill-opacity:0.12549020000000000;fill-rule:evenodd;stroke:#000000;stroke-width:1.25;stroke-linecap:butt;stroke-linejoin:miter;stroke-miterlimit:4;stroke-dashoffset:0;stroke-opacity:1;stroke-dasharray:none"
         id="rect_tab"
         height="60" />
      <rect
         y="120"
         x="0"
         width="105"
         style="fill:#000000;fill-opacity:0.12549020000000000;fill-rule:evenodd;stroke:#000000;stroke-width:1.25;stroke-linecap:butt;stroke-linejoin:miter;stroke-miterlimit:4;stroke-dashoffset:0;stroke-opacity:1;stroke-dasharray:none"
         id="rect_capslock"
         height="60" />
      <rect
         y="180"
         x="0"
         width="135"
         style="fill:#000000;fill-opacity:0.12549020000000000;fill-rule:evenodd;stroke:#000000;stroke-width:1.25;stroke-linecap:butt;stroke-linejoin:miter;stroke-miterlimit:4;stroke-dashoffset:0;stroke-opacity:1;stroke-dasharray:none"
         id="rect_shiftl"
         height="60" />
      <rect
         y="180"
         x="735"
         width="165"
         style="fill:#000000;fill-opacity:0.12549020000000000;fill-rule:evenodd;stroke:#000000;stroke-width:1.25;stroke-linecap:butt;stroke-linejoin:miter;stroke-miterlimit:4;stroke-dashoffset:0;stroke-opacity:1;stroke-dasharray:none"
         id="rect_shiftr"
         height="60" />
      <rect
         y="240"
         x="0"
         width="90"
         style="fill:#000000;fill-opacity:0.12549020000000000;fill-rule:evenodd;stroke:#000000;stroke-width:1.25;stroke-linecap:butt;stroke-linejoin:miter;stroke-miterlimit:4;stroke-dashoffset:0;stroke-opacity:1;stroke-dasharray:none"
         id="rect_ctrll"
         height="60" />
      <rect
         y="240"
         x="810"
         width="90"
         style="fill:#000000;fill-opacity:0.12549020000000000;fill-rule:evenodd;stroke:#000000;stroke-width:1.25;stroke-linecap:butt;stroke-linejoin:miter;stroke-miterlimit:4;stroke-dashoffset:0;stroke-opacity:1;stroke-dasharray:none"
         id="rect_ctrlr"
         height="60" />
      <rect
         y="240"
         x="150"
         width="90"
         style="fill:#000000;fill-opacity:0.12549020000000000;fill-rule:evenodd;stroke:#000000;stroke-width:1.25;stroke-linecap:butt;stroke-linejoin:miter;stroke-miterlimit:4;stroke-dashoffset:0;stroke-opacity:1;stroke-dasharray:none"
         id="rect_altl"
         height="60" />
      <rect
         y="240"
         x="600"
         width="90"
         style="fill:#000000;fill-opacity:0.12549020000000000;fill-rule:evenodd;stroke:#000000;stroke-width:1.25;stroke-linecap:butt;stroke-linejoin:miter;stroke-miterlimit:4;stroke-dashoffset:0;stroke-opacity:1;stroke-dasharray:none"
         id="rect_altr"
         height="60" />
      <rect
         y="240"
         x="240"
         width="360"
         style="fill:black;fill-opacity:0.00392157000000000;fill-rule:nonzero;stroke:#000000;stroke-width:1.25;stroke-linecap:butt;stroke-linejoin:miter;stroke-miterlimit:4;stroke-dashoffset:0;stroke-opacity:1;stroke-dasharray:none"
         id="rect_space"
         height="60" />
      <rect
         y="240"
         x="90"
         width="60"
         style="fill:#000000;fill-opacity:0.06274510000000000;fill-rule:evenodd;stroke:#000000;stroke-width:1.25;stroke-linecap:butt;stroke-linejoin:miter;stroke-miterlimit:4;stroke-dashoffset:0;stroke-opacity:1;stroke-dasharray:none"
         id="rect_winl"
         height="60" />
      <rect
         y="240"
         x="690"
         width="60"
         style="fill:#000000;fill-opacity:0.06274510000000000;fill-rule:evenodd;stroke:#000000;stroke-width:1.25;stroke-linecap:butt;stroke-linejoin:miter;stroke-miterlimit:4;stroke-dashoffset:0;stroke-opacity:1;stroke-dasharray:none"
         id="rect_winr"
         height="60" />
      <rect
         y="240"
         x="750"
         width="60"
         style="fill:#000000;fill-opacity:0.06274510000000000;fill-rule:evenodd;stroke:#000000;stroke-width:1.25;stroke-linecap:butt;stroke-linejoin:miter;stroke-miterlimit:4;stroke-dashoffset:0;stroke-opacity:1;stroke-dasharray:none"
         id="rect_menu"
         height="60" />
      <rect
         y="120"
         x="765"
         width="135"
         style="fill:#000000;fill-opacity:0.12549020000000000;fill-rule:evenodd;stroke:#000000;stroke-width:1.25;stroke-linecap:butt;stroke-linejoin:miter;stroke-miterlimit:4;stroke-dashoffset:0;stroke-opacity:1;stroke-dasharray:none"
         id="rect_enter"
         height="60" />
      <rect
         y="0"
         x="0"
         width="60"
         style="fill:black;fill-opacity:0.00392157000000000;fill-rule:nonzero;stroke:#000000;stroke-width:1.25;stroke-linecap:butt;stroke-linejoin:miter;stroke-miterlimit:4;stroke-dashoffset:0;stroke-opacity:1;stroke-dasharray:none"
         id="rect_tilde"
         height="60" />
      <rect
         y="0"
         x="60"
         width="60"
         style="fill:black;fill-opacity:0.00392157000000000;fill-rule:nonzero;stroke:#000000;stroke-width:1.25;stroke-linecap:butt;stroke-linejoin:miter;stroke-miterlimit:4;stroke-dashoffset:0;stroke-opacity:1;stroke-dasharray:none"
         id="rect_1"
         height="60" />
      <rect
         y="0"
         x="120"
         width="60"
         style="fill:black;fill-opacity:0.00392157000000000;fill-rule:nonzero;stroke:#000000;stroke-width:1.25;stroke-linecap:butt;stroke-linejoin:miter;stroke-miterlimit:4;stroke-dashoffset:0;stroke-opacity:1;stroke-dasharray:none"
         id="rect_2"
         height="60" />
      <rect
         y="0"
         x="180"
         width="60"
         style="fill:black;fill-opacity:0.00392157000000000;fill-rule:nonzero;stroke:#000000;stroke-width:1.25;stroke-linecap:butt;stroke-linejoin:miter;stroke-miterlimit:4;stroke-dashoffset:0;stroke-opacity:1;stroke-dasharray:none"
         id="rect_3"
         height="60" />
      <rect
         y="0"
         x="240"
         width="60"
         style="fill:black;fill-opacity:0.00392157000000000;fill-rule:nonzero;stroke:#000000;stroke-width:1.25;stroke-linecap:butt;stroke-linejoin:miter;stroke-miterlimit:4;stroke-dashoffset:0;stroke-opacity:1;stroke-dasharray:none"
         id="rect_4"
         height="60" />
      <rect
         y="0"
         x="300"
         width="60"
         style="fill:black;fill-opacity:0.00392157000000000;fill-rule:nonzero;stroke:#000000;stroke-width:1.25;stroke-linecap:butt;stroke-linejoin:miter;stroke-miterlimit:4;stroke-dashoffset:0;stroke-opacity:1;stroke-dasharray:none"
         id="rect_5"
         height="60" />
      <rect
         y="0"
         x="360"
         width="60"
         style="fill:black;fill-opacity:0.00392157000000000;fill-rule:nonzero;stroke:#000000;stroke-width:1.25;stroke-linecap:butt;stroke-linejoin:miter;stroke-miterlimit:4;stroke-dashoffset:0;stroke-opacity:1;stroke-dasharray:none"
         id="rect_6"
         height="60" />
      <rect
         y="0"
         x="420"
         width="60"
         style="fill:black;fill-opacity:0.00392157000000000;fill-rule:nonzero;stroke:#000000;stroke-width:1.25;stroke-linecap:butt;stroke-linejoin:miter;stroke-miterlimit:4;stroke-dashoffset:0;stroke-opacity:1;stroke-dasharray:none"
         id="rect_7"
         height="60" />
      <rect
         y="0"
         x="480"
         width="60"
         style="fill:black;fill-opacity:0.00392157000000000;fill-rule:nonzero;stroke:#000000;stroke-width:1.25;stroke-linecap:butt;stroke-linejoin:miter;stroke-miterlimit:4;stroke-dashoffset:0;stroke-opacity:1;stroke-dasharray:none"
         id="rect_8"
         height="60" />
      <rect
         y="0"
         x="540"
         width="60"
         style="fill:black;fill-opacity:0.00392157000000000;fill-rule:nonzero;stroke:#000000;stroke-width:1.25;stroke-linecap:butt;stroke-linejoin:miter;stroke-miterlimit:4;stroke-dashoffset:0;stroke-opacity:1;stroke-dasharray:none"
         id="rect_9"
         height="60" />
      <rect
         y="0"
         x="600"
         width="60"
         style="fill:black;fill-opacity:0.00392157000000000;fill-rule:nonzero;stroke:#000000;stroke-width:1.25;stroke-linecap:butt;stroke-linejoin:miter;stroke-miterlimit:4;stroke-dashoffset:0;stroke-opacity:1;stroke-dasharray:none"
         id="rect_0"
         height="60" />
      <rect
         y="0"
         x="660"
         width="60"
         style="fill:black;fill-opacity:0.00392157000000000;fill-rule:nonzero;stroke:#000000;stroke-width:1.25;stroke-linecap:butt;stroke-linejoin:miter;stroke-miterlimit:4;stroke-dashoffset:0;stroke-opacity:1;stroke-dasharray:none"
         id="rect_minus"
         height="60" />
      <rect
         y="0"
         x="720"
         width="60"
         style="fill:black;fill-opacity:0.00392157000000000;fill-rule:nonzero;stroke:#000000;stroke-width:1.25;stroke-linecap:butt;stroke-linejoin:miter;stroke-miterlimit:4;stroke-dashoffset:0;stroke-opacity:1;stroke-dasharray:none"
         id="rect_equal"
         height="60" />
      <rect
         y="60"
         x="90"
         width="60"
         style="fill:black;fill-opacity:0.00392157000000000;fill-rule:nonzero;stroke:#000000;stroke-width:1.25;stroke-linecap:butt;stroke-linejoin:miter;stroke-miterlimit:4;stroke-dashoffset:0;stroke-opacity:1;stroke-dasharray:none"
         id="rect_q"
         height="60" />
      <rect
         y="60"
         x="150"
         width="60"
         style="fill:black;fill-opacity:0.00392157000000000;fill-rule:nonzero;stroke:#000000;stroke-width:1.25;stroke-linecap:butt;stroke-linejoin:miter;stroke-miterlimit:4;stroke-dashoffset:0;stroke-opacity:1;stroke-dasharray:none"
         id="rect_w"
         height="60" />
      <rect
         y="60"
         x="210"
         width="60"
         style="fill:black;fill-opacity:0.00392157000000000;fill-rule:nonzero;stroke:#000000;stroke-width:1.25;stroke-linecap:butt;stroke-linejoin:miter;stroke-miterlimit:4;stroke-dashoffset:0;stroke-opacity:1;stroke-dasharray:none"
         id="rect_e"
         height="60" />
      <rect
         y="60"
         x="270"
         width="60"
         style="fill:black;fill-opacity:0.00392157000000000;fill-rule:nonzero;stroke:#000000;stroke-width:1.25;stroke-linecap:butt;stroke-linejoin:miter;stroke-miterlimit:4;stroke-dashoffset:0;stroke-opacity:1;stroke-dasharray:none"
         id="rect_r"
         height="60" />
      <rect
         y="60"
         x="330"
         width="60"
         style="fill:black;fill-opacity:0.00392157000000000;fill-rule:nonzero;stroke:#000000;stroke-width:1.25;stroke-linecap:butt;stroke-linejoin:miter;stroke-miterlimit:4;stroke-dashoffset:0;stroke-opacity:1;stroke-dasharray:none"
         id="rect_t"
         height="60" />
      <rect
         y="60"
         x="390"
         width="60"
         style="fill:black;fill-opacity:0.00392157000000000;fill-rule:nonzero;stroke:#000000;stroke-width:1.25;stroke-linecap:butt;stroke-linejoin:miter;stroke-miterlimit:4;stroke-dashoffset:0;stroke-opacity:1;stroke-dasharray:none"
         id="rect_y"
         height="60" />
      <rect
         y="60"
         x="450"
         width="60"
         style="fill:black;fill-opacity:0.00392157000000000;fill-rule:nonzero;stroke:#000000;stroke-width:1.25;stroke-linecap:butt;stroke-linejoin:miter;stroke-miterlimit:4;stroke-dashoffset:0;stroke-opacity:1;stroke-dasharray:none"
         id="rect_u"
         height="60" />
      <rect
         y="60"
         x="510"
         width="60"
         style="fill:black;fill-opacity:0.00392157000000000;fill-rule:nonzero;stroke:#000000;stroke-width:1.25;stroke-linecap:butt;stroke-linejoin:miter;stroke-miterlimit:4;stroke-dashoffset:0;stroke-opacity:1;stroke-dasharray:none"
         id="rect_i"
         height="60" />
      <rect
         y="60"
         x="570"
         width="60"
         style="fill:black;fill-opacity:0.00392157000000000;fill-rule:nonzero;stroke:#000000;stroke-width:1.25;stroke-linecap:butt;stroke-linejoin:miter;stroke-miterlimit:4;stroke-dashoffset:0;stroke-opacity:1;stroke-dasharray:none"
         id="rect_o"
         height="60" />
      <rect
         y="60"
         x="630"
         width="60"
         style="fill:black;fill-opacity:0.00392157000000000;fill-rule:nonzero;stroke:#000000;stroke-width:1.25;stroke-linecap:butt;stroke-linejoin:miter;stroke-miterlimit:4;stroke-dashoffset:0;stroke-opacity:1;stroke-dasharray:none"
         id="rect_p"
         height="60" />
      <rect
         y="60"
         x="690"
         width="60"
         style="fill:black;fill-opacity:0.00392157000000000;fill-rule:nonzero;stroke:#000000;stroke-width:1.25;stroke-linecap:butt;stroke-linejoin:miter;stroke-miterlimit:4;stroke-dashoffset:0;stroke-opacity:1;stroke-dasharray:none"
         id="rect_sql"
         height="60" />
      <rect
         y="60"
         x="750"
         width="60"
         style="fill:black;fill-opacity:0.00392157000000000;fill-rule:nonzero;stroke:#000000;stroke-width:1.25;stroke-linecap:butt;stroke-linejoin:miter;stroke-miterlimit:4;stroke-dashoffset:0;stroke-opacity:1;stroke-dasharray:none"
         id="rect_sqr"
         height="60" />
      <rect
         y="60"
         x="810"
         width="90"
         style="fill:black;fill-opacity:0.00392157000000000;fill-rule:nonzero;stroke:#000000;stroke-width:1.25;stroke-linecap:butt;stroke-linejoin:miter;stroke-miterlimit:4;stroke-dashoffset:0;stroke-opacity:1;stroke-dasharray:none"
         id="rect_slashb"
         height="60" />
      <rect
         y="120"
         x="105"
         width="60"
         style="fill:black;fill-opacity:0.00392157000000000;fill-rule:nonzero;stroke:#000000;stroke-width:1.25;stroke-linecap:butt;stroke-linejoin:miter;stroke-miterlimit:4;stroke-dashoffset:0;stroke-opacity:1;stroke-dasharray:none"
         id="rect_a"
         height="60" />
      <rect
         y="120"
         x="165"
         width="60"
         style="fill:black;fill-opacity:0.00392157000000000;fill-rule:nonzero;stroke:#000000;stroke-width:1.25;stroke-linecap:butt;stroke-linejoin:miter;stroke-miterlimit:4;stroke-dashoffset:0;stroke-opacity:1;stroke-dasharray:none"
         id="rect_s"
         height="60" />
      <rect
         y="120"
         x="225"
         width="60"
         style="fill:black;fill-opacity:0.00392157000000000;fill-rule:nonzero;stroke:#000000;stroke-width:1.25;stroke-linecap:butt;stroke-linejoin:miter;stroke-miterlimit:4;stroke-dashoffset:0;stroke-opacity:1;stroke-dasharray:none"
         id="rect_d"
         height="60" />
      <rect
         y="120"
         x="285"
         width="60"
         style="fill:black;fill-opacity:0.00392157000000000;fill-rule:nonzero;stroke:#000000;stroke-width:1.25;stroke-linecap:butt;stroke-linejoin:miter;stroke-miterlimit:4;stroke-dashoffset:0;stroke-opacity:1;stroke-dasharray:none"
         id="rect_f"
         height="60" />
      <rect
         y="120"
         x="345"
         width="60"
         style="fill:black;fill-opacity:0.00392157000000000;fill-rule:nonzero;stroke:#000000;stroke-width:1.25;stroke-linecap:butt;stroke-linejoin:miter;stroke-miterlimit:4;stroke-dashoffset:0;stroke-opacity:1;stroke-dasharray:none"
         id="rect_g"
         height="60" />
      <rect
         y="120"
         x="405"
         width="60"
         style="fill:black;fill-opacity:0.00392157000000000;fill-rule:nonzero;stroke:#000000;stroke-width:1.25;stroke-linecap:butt;stroke-linejoin:miter;stroke-miterlimit:4;stroke-dashoffset:0;stroke-opacity:1;stroke-dasharray:none"
         id="rect_h"
         height="60" />
      <rect
         y="120"
         x="465"
         width="60"
         style="fill:black;fill-opacity:0.00392157000000000;fill-rule:nonzero;stroke:#000000;stroke-width:1.25;stroke-linecap:butt;stroke-linejoin:miter;stroke-miterlimit:4;stroke-dashoffset:0;stroke-opacity:1;stroke-dasharray:none"
         id="rect_j"
         height="60" />
      <rect
         y="120"
         x="525"
         width="60"
         style="fill:black;fill-opacity:0.00392157000000000;fill-rule:nonzero;stroke:#000000;stroke-width:1.25;stroke-linecap:butt;stroke-linejoin:miter;stroke-miterlimit:4;stroke-dashoffset:0;stroke-opacity:1;stroke-dasharray:none"
         id="rect_k"
         height="60" />
      <rect
         y="120"
         x="585"
         width="60"
         style="fill:black;fill-opacity:0.00392157000000000;fill-rule:nonzero;stroke:#000000;stroke-width:1.25;stroke-linecap:butt;stroke-linejoin:miter;stroke-miterlimit:4;stroke-dashoffset:0;stroke-opacity:1;stroke-dasharray:none"
         id="rect_l"
         height="60" />
      <rect
         y="120"
         x="645"
         width="60"
         style="fill:black;fill-opacity:0.00392157000000000;fill-rule:nonzero;stroke:#000000;stroke-width:1.25;stroke-linecap:butt;stroke-linejoin:miter;stroke-miterlimit:4;stroke-dashoffset:0;stroke-opacity:1;stroke-dasharray:none"
         id="rect_semi"
         height="60" />
      <rect
         y="120"
         x="705"
         width="60"
         style="fill:black;fill-opacity:0.00392157000000000;fill-rule:nonzero;stroke:#000000;stroke-width:1.25;stroke-linecap:butt;stroke-linejoin:miter;stroke-miterlimit:4;stroke-dashoffset:0;stroke-opacity:1;stroke-dasharray:none"
         id="rect_quote"
         height="60" />
      <rect
         y="180"
         x="135"
         width="60"
         style="fill:black;fill-opacity:0.00392157000000000;fill-rule:nonzero;stroke:#000000;stroke-width:1.25;stroke-linecap:butt;stroke-linejoin:miter;stroke-miterlimit:4;stroke-dashoffset:0;stroke-opacity:1;stroke-dasharray:none"
         id="rect_z"
         height="60" />
      <rect
         y="180"
         x="195"
         width="60"
         style="fill:black;fill-opacity:0.00392157000000000;fill-rule:nonzero;stroke:#000000;stroke-width:1.25;stroke-linecap:butt;stroke-linejoin:miter;stroke-miterlimit:4;stroke-dashoffset:0;stroke-opacity:1;stroke-dasharray:none"
         id="rect_x"
         height="60" />
      <rect
         y="180"
         x="255"
         width="60"
         style="fill:black;fill-opacity:0.00392157000000000;fill-rule:nonzero;stroke:#000000;stroke-width:1.25;stroke-linecap:butt;stroke-linejoin:miter;stroke-miterlimit:4;stroke-dashoffset:0;stroke-opacity:1;stroke-dasharray:none"
         id="rect_c"
         height="60" />
      <rect
         y="180"
         x="315"
         width="60"
         style="fill:black;fill-opacity:0.00392157000000000;fill-rule:nonzero;stroke:#000000;stroke-width:1.25;stroke-linecap:butt;stroke-linejoin:miter;stroke-miterlimit:4;stroke-dashoffset:0;stroke-opacity:1;stroke-dasharray:none"
         id="rect_v"
         height="60" />
      <rect
         y="180"
         x="375"
         width="60"
         style="fill:black;fill-opacity:0.00392157000000000;fill-rule:nonzero;stroke:#000000;stroke-width:1.25;stroke-linecap:butt;stroke-linejoin:miter;stroke-miterlimit:4;stroke-dashoffset:0;stroke-opacity:1;stroke-dasharray:none"
         id="rect_b"
         height="60" />
      <rect
         y="180"
         x="435"
         width="60"
         style="fill:black;fill-opacity:0.00392157000000000;fill-rule:nonzero;stroke:#000000;stroke-width:1.25;stroke-linecap:butt;stroke-linejoin:miter;stroke-miterlimit:4;stroke-dashoffset:0;stroke-opacity:1;stroke-dasharray:none"
         id="rect_n"
         height="60" />
      <rect
         y="180"
         x="495"
         width="60"
         style="fill:black;fill-opacity:0.00392157000000000;fill-rule:nonzero;stroke:#000000;stroke-width:1.25;stroke-linecap:butt;stroke-linejoin:miter;stroke-miterlimit:4;stroke-dashoffset:0;stroke-opacity:1;stroke-dasharray:none"
         id="rect_m"
         height="60" />
      <rect
         y="180"
         x="555"
         width="60"
         style="fill:black;fill-opacity:0.00392157000000000;fill-rule:nonzero;stroke:#000000;stroke-width:1.25;stroke-linecap:butt;stroke-linejoin:miter;stroke-miterlimit:4;stroke-dashoffset:0;stroke-opacity:1;stroke-dasharray:none"
         id="rect_comma"
         height="60" />
      <rect
         y="180"
         x="615"
         width="60"
         style="fill:black;fill-opacity:0.00392157000000000;fill-rule:nonzero;stroke:#000000;stroke-width:1.25;stroke-linecap:butt;stroke-linejoin:miter;stroke-miterlimit:4;stroke-dashoffset:0;stroke-opacity:1;stroke-dasharray:none"
         id="rect_period"
         height="60" />
      <rect
         y="180"
         x="675"
         width="60"
         style="fill:black;fill-opacity:0.00392157000000000;fill-rule:nonzero;stroke:#000000;stroke-width:1.25;stroke-linecap:butt;stroke-linejoin:miter;stroke-miterlimit:4;stroke-dashoffset:0;stroke-opacity:1;stroke-dasharray:none"
         id="rect_slashf"
         height="60" />
      <g
         transform="translate(-0.8862106,1.4461353)"
         inkscape:label="Layer 1"
         id="g2456">
        <path
           d=""
           id="flowRoot4146" />
        <path
           style="font-size:16px;font-style:normal;font-variant:normal;font-weight:bold;font-stretch:normal;text-align:center;line-height:125%;writing-mode:lr-tb;text-anchor:middle;fill:black;fill-opacity:1;stroke:none;font-family:Swis721 BT"
           d="m 11.070313,95.601563 0,-9.453125 -3.414063,0 0,-2.054688 9.171875,0 0,2.054688 -3.390625,0 0,9.453125 -2.367187,0 m 11.789062,-1.054688 c -0.286464,0.442709 -0.661464,0.78125 -1.125,1.015625 -0.463546,0.229166 -1.002608,0.34375 -1.617187,0.34375 -0.822919,0 -1.458335,-0.234375 -1.90625,-0.703125 -0.44271,-0.468749 -0.664064,-1.135415 -0.664063,-2 -1e-6,-0.80208 0.221353,-1.414059 0.664063,-1.835937 0.447915,-0.421871 1.184893,-0.710933 2.210937,-0.867188 0.234371,-0.03645 0.541663,-0.07812 0.921875,-0.125 0.963536,-0.124995 1.445307,-0.40364 1.445313,-0.835937 -6e-6,-0.343744 -0.106777,-0.588536 -0.320313,-0.734375 -0.213547,-0.151035 -0.570317,-0.226556 -1.070312,-0.226563 -0.458338,7e-6 -0.8099,0.09115 -1.054688,0.273438 -0.244795,0.182298 -0.36719,0.442714 -0.367187,0.78125 l 0,0.125 -2.125,0 0,-0.15625 c -10e-7,-0.869785 0.30729,-1.552076 0.921875,-2.046875 0.61458,-0.499992 1.463538,-0.749992 2.546875,-0.75 1.187494,8e-6 2.096347,0.205737 2.726562,0.617187 0.635409,0.411466 0.953117,1.005216 0.953125,1.78125 l 0,4.828125 c -8e-6,0.354168 0.03645,0.619793 0.109375,0.796875 0.07291,0.171876 0.195304,0.302084 0.367188,0.390625 l 0,0.382813 -2.367188,0 c -0.07813,-0.145834 -0.138027,-0.307292 -0.179687,-0.484375 -0.04167,-0.177083 -0.06511,-0.367187 -0.07031,-0.570313 m -0.03906,-3.125 c -0.369798,0.171879 -0.796881,0.3099 -1.28125,0.414063 -0.479171,0.10417 -0.726567,0.158857 -0.742188,0.164062 -0.401045,0.114587 -0.682295,0.257816 -0.84375,0.429688 -0.156253,0.171878 -0.234378,0.408856 -0.234375,0.710937 -3e-6,0.312502 0.10156,0.562502 0.304688,0.75 0.203121,0.182293 0.476559,0.273439 0.820312,0.273438 0.614579,10e-7 1.096349,-0.171874 1.445313,-0.515625 0.354161,-0.348957 0.531244,-0.822914 0.53125,-1.421875 l 0,-0.804688 m 4.21875,-7.328125 2.210937,0 0,4.070313 c 0.281246,-0.442701 0.632809,-0.776034 1.054688,-1 0.427078,-0.229158 0.911453,-0.343742 1.453125,-0.34375 1.026034,8e-6 1.864575,0.424487 2.515625,1.273437 0.651032,0.843757 0.976553,1.942714 0.976562,3.296875 -9e-6,1.343753 -0.32553,2.429689 -0.976562,3.257813 -0.65105,0.828125 -1.500007,1.242187 -2.546875,1.242187 -0.546881,0 -1.023443,-0.114584 -1.429688,-0.34375 -0.401046,-0.229166 -0.765629,-0.593749 -1.09375,-1.09375 l 0,1.148438 -2.164062,0 0,-11.507813 m 5.953125,7.203125 c -7e-6,-0.781245 -0.16407,-1.393223 -0.492188,-1.835937 -0.328131,-0.447911 -0.778652,-0.671869 -1.351562,-0.671875 -0.604172,6e-6 -1.072921,0.218756 -1.40625,0.65625 -0.328129,0.432297 -0.492191,1.049484 -0.492188,1.851562 -3e-6,0.864587 0.156247,1.520836 0.46875,1.96875 0.317704,0.447919 0.778641,0.671877 1.382813,0.671875 0.614577,2e-6 1.083327,-0.223956 1.40625,-0.671875 0.322909,-0.453122 0.484368,-1.109372 0.484375,-1.96875"
           id="text5427" />
        <path
           style="font-size:16px;font-style:normal;font-variant:normal;font-weight:bold;font-stretch:normal;text-align:center;line-height:125%;writing-mode:lr-tb;text-anchor:middle;fill:black;fill-opacity:1;stroke:none;font-family:Swis721 BT"
           d="m 789.76563,44.369141 2.80468,0 c 0.66145,2e-6 1.14322,-0.11979 1.44532,-0.359375 0.30207,-0.239581 0.45311,-0.617185 0.45312,-1.132813 -10e-6,-0.536454 -0.14845,-0.92187 -0.44531,-1.15625 -0.29688,-0.239578 -0.78647,-0.35937 -1.46875,-0.359375 l -2.78906,0 0,3.007813 m 0,-4.976563 2.70312,0 c 0.58333,7e-6 1.01041,-0.09895 1.28125,-0.296875 0.27083,-0.203117 0.40624,-0.520825 0.40625,-0.953125 -10e-6,-0.421866 -0.13282,-0.726553 -0.39844,-0.914062 -0.26042,-0.192699 -0.69532,-0.289053 -1.30468,-0.289063 l -2.6875,0 0,2.453125 m -2.26563,7.054688 0,-11.507813 5.42188,0 c 1.17707,1.2e-5 2.0729,0.250011 2.6875,0.75 0.61978,0.494802 0.92967,1.216156 0.92968,2.164063 -10e-6,0.583341 -0.11459,1.07032 -0.34375,1.460937 -0.22917,0.390632 -0.57292,0.692715 -1.03125,0.90625 0.59374,0.239589 1.03645,0.585943 1.32813,1.039063 0.29686,0.447921 0.4453,1.007816 0.44531,1.679687 -10e-6,1.119794 -0.36459,1.984377 -1.09375,2.59375 -0.72918,0.609375 -1.76303,0.914063 -3.10156,0.914063 l -5.24219,0 m 15.95313,-1.054688 c -0.28647,0.442709 -0.66147,0.78125 -1.125,1.015625 -0.46355,0.229167 -1.00261,0.34375 -1.61719,0.34375 -0.82292,0 -1.45834,-0.234375 -1.90625,-0.703125 -0.44271,-0.468749 -0.66407,-1.135415 -0.66406,-2 -10e-6,-0.80208 0.22135,-1.414059 0.66406,-1.835937 0.44791,-0.421871 1.18489,-0.710933 2.21094,-0.867188 0.23437,-0.03645 0.54166,-0.07812 0.92187,-0.125 0.96354,-0.124995 1.44531,-0.40364 1.44531,-0.835937 0,-0.343744 -0.10677,-0.588535 -0.32031,-0.734375 -0.21355,-0.151035 -0.57032,-0.226556 -1.07031,-0.226563 -0.45834,7e-6 -0.8099,0.09115 -1.05469,0.273438 -0.24479,0.182298 -0.36719,0.442714 -0.36719,0.78125 l 0,0.125 -2.125,0 0,-0.15625 c 0,-0.869785 0.30729,-1.552076 0.92188,-2.046875 0.61458,-0.499992 1.46354,-0.749992 2.54687,-0.75 1.1875,8e-6 2.09635,0.205737 2.72657,0.617187 0.6354,0.411466 0.95311,1.005216 0.95312,1.78125 l 0,4.828125 c -10e-6,0.354168 0.0364,0.619793 0.10938,0.796875 0.0729,0.171876 0.1953,0.302084 0.36718,0.390625 l 0,0.382813 -2.36718,0 c -0.0781,-0.145834 -0.13803,-0.307292 -0.17969,-0.484375 -0.0417,-0.177083 -0.0651,-0.367187 -0.0703,-0.570313 m -0.0391,-3.125 c -0.36979,0.171879 -0.79688,0.3099 -1.28125,0.414063 -0.47917,0.10417 -0.72656,0.158857 -0.74218,0.164062 -0.40105,0.114587 -0.6823,0.257816 -0.84375,0.429688 -0.15626,0.171878 -0.23438,0.408857 -0.23438,0.710937 0,0.312502 0.10156,0.562502 0.30469,0.75 0.20312,0.182293 0.47656,0.273439 0.82031,0.273438 0.61458,10e-7 1.09635,-0.171874 1.44531,-0.515625 0.35416,-0.348956 0.53125,-0.822914 0.53125,-1.421875 l 0,-0.804688 m 9.30469,0.976563 2.24219,0 c -0.0938,1.078127 -0.48699,1.929688 -1.17969,2.554687 -0.69271,0.625 -1.58334,0.9375 -2.67187,0.9375 -1.23438,0 -2.20313,-0.401041 -2.90625,-1.203125 -0.69792,-0.80729 -1.04688,-1.921872 -1.04688,-3.34375 0,-1.416661 0.35677,-2.526035 1.07031,-3.328125 0.71875,-0.807283 1.70573,-1.210929 2.96094,-1.210937 1.09895,8e-6 1.97916,0.291675 2.64063,0.875 0.66665,0.58334 1.03905,1.395839 1.11718,2.4375 l -2.25781,0 c -0.0625,-0.453119 -0.22136,-0.799473 -0.47656,-1.039063 -0.25522,-0.239576 -0.59115,-0.359368 -1.00781,-0.359375 -0.56251,7e-6 -0.98438,0.221361 -1.26563,0.664063 -0.27604,0.442714 -0.41407,1.106776 -0.41406,1.992187 -10e-6,0.817712 0.14322,1.44792 0.42969,1.890625 0.29166,0.437502 0.70832,0.656252 1.25,0.65625 0.42186,2e-6 0.76041,-0.127602 1.01562,-0.382812 0.2552,-0.255206 0.42187,-0.635414 0.5,-1.140625 m 3.72656,3.203125 0,-11.507813 2.21094,0 0,6.039063 2.70313,-3.023438 2.73437,0 -2.96094,3.148438 3.14063,5.34375 -2.72656,0 -2.03125,-3.617188 -0.85938,0.929688 0,2.6875 -2.21094,0 m 8.35157,-2.765625 2.26562,0 c 0.0208,0.432294 0.17708,0.75521 0.46875,0.96875 0.29166,0.208335 0.72916,0.312501 1.3125,0.3125 0.4427,10e-7 0.78385,-0.07292 1.02344,-0.21875 0.24478,-0.15104 0.36718,-0.361977 0.36719,-0.632813 -1e-5,-0.385414 -0.45314,-0.674476 -1.35938,-0.867187 -0.3698,-0.07812 -0.66407,-0.14583 -0.88281,-0.203125 -1.10417,-0.281247 -1.8724,-0.61458 -2.30469,-1 -0.42708,-0.385412 -0.64063,-0.906245 -0.64062,-1.5625 -1e-5,-0.869785 0.31249,-1.557285 0.9375,-2.0625 0.6302,-0.510408 1.48176,-0.765617 2.55468,-0.765625 1.13541,8e-6 2.02604,0.252612 2.67188,0.757812 0.65103,0.505216 0.99739,1.216153 1.03906,2.132813 l -2.21094,0 c -0.0156,-0.359369 -0.15365,-0.638015 -0.41406,-0.835938 -0.25521,-0.19791 -0.61198,-0.296868 -1.07031,-0.296875 -0.4323,7e-6 -0.75521,0.06511 -0.96875,0.195313 -0.20834,0.130215 -0.31251,0.325527 -0.3125,0.585937 -10e-6,0.338548 0.5651,0.638027 1.69531,0.898438 0.26041,0.0573 0.46614,0.104172 0.61719,0.140625 1.1302,0.26563 1.90103,0.585942 2.3125,0.960937 0.41666,0.375004 0.62499,0.903649 0.625,1.585938 -10e-6,0.963543 -0.34116,1.697917 -1.02344,2.203125 -0.67709,0.505208 -1.66407,0.757812 -2.96094,0.757812 -1.17188,0 -2.08854,-0.263021 -2.75,-0.789062 -0.66146,-0.526041 -0.99219,-1.249999 -0.99218,-2.171875 l 0,-0.09375 m 15.22656,-1.429688 c -10e-6,-0.854161 -0.16147,-1.505203 -0.48438,-1.953125 -0.32292,-0.453118 -0.79167,-0.679681 -1.40625,-0.679687 -0.60417,6e-6 -1.06511,0.223965 -1.38281,0.671875 -0.3125,0.447922 -0.46875,1.101567 -0.46875,1.960937 0,0.802087 0.16406,1.421878 0.49219,1.859375 0.33333,0.437502 0.80208,0.656252 1.40625,0.65625 0.57291,2e-6 1.02343,-0.223956 1.35156,-0.671875 0.32812,-0.447914 0.49218,-1.062496 0.49219,-1.84375 m -5.95313,7.601563 0,-11.898438 2.16407,0 0,1.148438 c 0.32812,-0.499993 0.6927,-0.864576 1.09375,-1.09375 0.40624,-0.229158 0.8828,-0.343742 1.42968,-0.34375 1.04687,8e-6 1.89583,0.41407 2.54688,1.242187 0.65103,0.822924 0.97655,1.906256 0.97656,3.25 -1e-5,1.359378 -0.32553,2.463544 -0.97656,3.3125 -0.65105,0.84375 -1.48959,1.265625 -2.51563,1.265625 -0.54167,0 -1.02604,-0.114583 -1.45312,-0.34375 -0.42188,-0.229166 -0.77344,-0.562499 -1.05469,-1 l 0,4.460938 -2.21094,0 m 14.63282,-4.460938 c -0.28647,0.442709 -0.66147,0.78125 -1.125,1.015625 -0.46355,0.229167 -1.00261,0.34375 -1.61719,0.34375 -0.82292,0 -1.45834,-0.234375 -1.90625,-0.703125 -0.44271,-0.468749 -0.66407,-1.135415 -0.66406,-2 -1e-5,-0.80208 0.22135,-1.414059 0.66406,-1.835937 0.44791,-0.421871 1.18489,-0.710933 2.21094,-0.867188 0.23437,-0.03645 0.54166,-0.07812 0.92187,-0.125 0.96354,-0.124995 1.44531,-0.40364 1.44531,-0.835937 0,-0.343744 -0.10677,-0.588535 -0.32031,-0.734375 -0.21355,-0.151035 -0.57032,-0.226556 -1.07031,-0.226563 -0.45834,7e-6 -0.8099,0.09115 -1.05469,0.273438 -0.24479,0.182298 -0.36719,0.442714 -0.36719,0.78125 l 0,0.125 -2.125,0 0,-0.15625 c 0,-0.869785 0.30729,-1.552076 0.92188,-2.046875 0.61458,-0.499992 1.46354,-0.749992 2.54687,-0.75 1.1875,8e-6 2.09635,0.205737 2.72657,0.617187 0.6354,0.411466 0.95311,1.005216 0.95312,1.78125 l 0,4.828125 c -1e-5,0.354168 0.0364,0.619793 0.10938,0.796875 0.0729,0.171876 0.1953,0.302084 0.36718,0.390625 l 0,0.382813 -2.36718,0 c -0.0781,-0.145834 -0.13803,-0.307292 -0.17969,-0.484375 -0.0417,-0.177083 -0.0651,-0.367187 -0.0703,-0.570313 m -0.0391,-3.125 c -0.36979,0.171879 -0.79688,0.3099 -1.28125,0.414063 -0.47917,0.10417 -0.72656,0.158857 -0.74218,0.164062 -0.40105,0.114587 -0.6823,0.257816 -0.84375,0.429688 -0.15626,0.171878 -0.23438,0.408857 -0.23438,0.710937 0,0.312502 0.10156,0.562502 0.30469,0.75 0.20312,0.182293 0.47656,0.273439 0.82031,0.273438 0.61458,10e-7 1.09635,-0.171874 1.44531,-0.515625 0.35416,-0.348956 0.53125,-0.822914 0.53125,-1.421875 l 0,-0.804688 m 9.30469,0.976563 2.24219,0 c -0.0938,1.078127 -0.48699,1.929688 -1.17969,2.554687 -0.69271,0.625 -1.58334,0.9375 -2.67187,0.9375 -1.23438,0 -2.20313,-0.401041 -2.90625,-1.203125 -0.69792,-0.80729 -1.04688,-1.921872 -1.04688,-3.34375 0,-1.416661 0.35677,-2.526035 1.07031,-3.328125 0.71875,-0.807283 1.70573,-1.210929 2.96094,-1.210937 1.09895,8e-6 1.97916,0.291675 2.64063,0.875 0.66665,0.58334 1.03905,1.395839 1.11718,2.4375 l -2.25781,0 c -0.0625,-0.453119 -0.22136,-0.799473 -0.47656,-1.039063 -0.25522,-0.239576 -0.59115,-0.359368 -1.00781,-0.359375 -0.56251,7e-6 -0.98438,0.221361 -1.26563,0.664063 -0.27604,0.442714 -0.41407,1.106776 -0.41406,1.992187 -1e-5,0.817712 0.14322,1.44792 0.42969,1.890625 0.29166,0.437502 0.70832,0.656252 1.25,0.65625 0.42186,2e-6 0.76041,-0.127602 1.01562,-0.382812 0.2552,-0.255206 0.42187,-0.635414 0.5,-1.140625 m 8.91406,0.625 2.26563,0 c -0.22918,0.895835 -0.69272,1.598959 -1.39063,2.109375 -0.69271,0.505208 -1.53907,0.757812 -2.53906,0.757812 -1.22917,0 -2.20313,-0.411458 -2.92187,-1.234375 -0.71876,-0.828123 -1.07813,-1.947914 -1.07813,-3.359375 0,-1.390619 0.35417,-2.486972 1.0625,-3.289062 0.70833,-0.802075 1.67708,-1.203117 2.90625,-1.203125 1.30208,8e-6 2.30728,0.395841 3.01563,1.1875 0.70832,0.786465 1.06249,1.908859 1.0625,3.367187 -10e-6,0.161463 -0.003,0.283858 -0.008,0.367188 -1e-5,0.07813 -0.005,0.153649 -0.0156,0.226562 l -5.67188,0 c 0.0312,0.66667 0.19271,1.169273 0.48438,1.507813 0.29687,0.338543 0.72135,0.507814 1.27344,0.507812 0.39061,2e-6 0.71093,-0.07552 0.96093,-0.226562 0.25,-0.156248 0.44791,-0.395831 0.59375,-0.71875 m -3.3125,-2.5625 3.34375,0 c -0.0208,-0.572911 -0.17448,-1.007807 -0.46093,-1.304688 -0.28126,-0.302076 -0.68751,-0.453118 -1.21875,-0.453125 -0.4948,7e-6 -0.88543,0.151049 -1.17188,0.453125 -0.28125,0.30209 -0.44532,0.736985 -0.49219,1.304688"
           id="text5207" />
        <path
           style="fill:none;stroke:black;stroke-width:3;stroke-linecap:butt;stroke-linejoin:miter;stroke-miterlimit:4;stroke-opacity:1"
           d="m 840,17.646484 -42.97392,0"
           id="path5439" />
        <path
           style="fill:black;fill-opacity:1;fill-rule:evenodd;stroke:none"
           d="m 802.5,25.146484 0,-15 -15,7.5 15,7.5 z"
           id="path5441" />
        <g
           id="g5459"
           transform="translate(0,7.5)">
          <path
             style="fill:none;stroke:black;stroke-width:3.00000024;stroke-linecap:butt;stroke-linejoin:miter;stroke-miterlimit:4;stroke-opacity:1;stroke-dasharray:none"
             d="M 82.50003,75 54.020182,75"
             id="path5453" />
          <path
             style="fill:black;fill-opacity:1;fill-rule:evenodd;stroke:none"
             d="m 60,82.5 0,-15 -15,7.5 15,7.5 z"
             id="path5455" />
          <path
             id="path5457"
             d="m 45,67.5 c 0,15 0,15 0,15"
             style="fill:none;stroke:black;stroke-width:3;stroke-linecap:butt;stroke-linejoin:miter;stroke-miterlimit:4;stroke-opacity:1;stroke-dasharray:none" />
        </g>
        <g
           id="g5464"
           transform="matrix(-1,0,0,-1,127.5,172.5)">
          <path
             id="path5466"
             d="M 82.50003,75 54.020182,75"
             style="fill:none;stroke:black;stroke-width:3.00000024;stroke-linecap:butt;stroke-linejoin:miter;stroke-miterlimit:4;stroke-opacity:1;stroke-dasharray:none" />
          <path
             id="path5468"
             d="m 60,82.5 0,-15 -15,7.5 15,7.5 z"
             style="fill:black;fill-opacity:1;fill-rule:evenodd;stroke:none" />
          <path
             style="fill:none;stroke:black;stroke-width:3;stroke-linecap:butt;stroke-linejoin:miter;stroke-miterlimit:4;stroke-opacity:1;stroke-dasharray:none"
             d="m 45,67.5 c 0,15 0,15 0,15"
             id="path5470" />
        </g>
        <g
           id="g5770"
           transform="translate(0,3.75)">
          <text
             sodipodi:linespacing="125%"
             id="text5570"
             y="139.30469"
             x="52.152344"
             style="font-size:16px;font-style:normal;font-variant:normal;font-weight:bold;font-stretch:normal;text-align:center;line-height:125%;writing-mode:lr-tb;text-anchor:middle;fill:black;fill-opacity:1;stroke:none;font-family:Swis721 BT"
             xml:space="preserve"><tspan
               y="139.30469"
               x="52.152344"
               id="tspan5572"
               sodipodi:role="line">Caps Lock</tspan></text>
          <path
             id="path5584"
             d="m 26.25,142.5 -11.25,15 7.5,0 0,7.5 7.5,0 0,-7.5 7.5,0 -11.25,-15 z m -1.03125,4.21875 2.03125,0 3.125,8.625 -1.875,0 -0.59375,-1.78125 -3.34375,0 -0.5625,1.78125 -1.875,0 3.09375,-8.625 z m 1.03125,1.71875 -1.21875,3.65625 2.40625,0 -1.1875,-3.65625 z"
             style="fill:black;fill-opacity:1;fill-rule:evenodd;stroke:none" />
        </g>
        <path
           style="font-size:16px;font-style:normal;font-variant:normal;font-weight:bold;font-stretch:normal;text-align:center;line-height:125%;writing-mode:lr-tb;text-anchor:middle;fill:black;fill-opacity:1;stroke:none;font-family:Swis721 BT"
           d="m 772.5,140.60938 0,-11.50782 8.35156,0 0,2 -6.01562,0 0,2.45313 5.5,0 0,1.96875 -5.5,0 0,2.96094 6.29687,0 0,2.125 -8.63281,0 m 10.24219,0 0,-8.49219 2.22656,0 0,1.00781 c 0.3177,-0.41145 0.6927,-0.71874 1.125,-0.92187 0.43229,-0.20833 0.91406,-0.3125 1.44531,-0.3125 0.9375,0 1.63802,0.2448 2.10157,0.73437 0.46874,0.48438 0.70311,1.21615 0.70312,2.19531 l 0,5.78907 -2.27344,0 0,-5.13282 c 0,-0.60937 -0.10417,-1.04426 -0.3125,-1.30468 -0.20313,-0.26041 -0.53646,-0.39062 -1,-0.39063 -0.53646,1e-5 -0.96094,0.16146 -1.27343,0.48438 -0.31251,0.31771 -0.46876,0.7526 -0.46875,1.30468 l 0,5.03907 -2.27344,0 m 13.33594,0.0625 c -0.20834,0.005 -0.45834,0.013 -0.75,0.0234 -0.28647,0.0156 -0.46876,0.0234 -0.54688,0.0234 -0.86979,0 -1.46615,-0.16146 -1.78906,-0.48437 -0.31771,-0.32813 -0.47657,-0.97136 -0.47656,-1.92969 l 0,-4.59375 -1.125,0 0,-1.59375 1.125,0 0,-2.32031 2.25,0 0,2.32031 1.3125,0 0,1.59375 -1.3125,0 0,4.70312 c -10e-6,0.22396 0.0495,0.3724 0.14843,0.44532 0.099,0.0677 0.30208,0.10156 0.60938,0.10156 l 0.55469,0 0,1.71094 m 6.55468,-2.64063 2.26563,0 c -0.22918,0.89584 -0.69272,1.59896 -1.39063,2.10938 -0.69271,0.5052 -1.53907,0.75781 -2.53906,0.75781 -1.22917,0 -2.20313,-0.41146 -2.92187,-1.23438 -0.71876,-0.82812 -1.07813,-1.94791 -1.07813,-3.35937 0,-1.39062 0.35417,-2.48697 1.0625,-3.28906 0.70833,-0.80208 1.67708,-1.20312 2.90625,-1.20313 1.30208,1e-5 2.30728,0.39584 3.01563,1.1875 0.70832,0.78647 1.06249,1.90886 1.0625,3.36719 -10e-6,0.16146 -0.003,0.28386 -0.008,0.36719 -10e-6,0.0781 -0.005,0.15364 -0.0156,0.22656 l -5.67188,0 c 0.0312,0.66667 0.19271,1.16927 0.48438,1.50781 0.29687,0.33854 0.72135,0.50781 1.27344,0.50781 0.39061,0 0.71093,-0.0755 0.96093,-0.22656 0.25,-0.15625 0.44791,-0.39583 0.59375,-0.71875 m -3.3125,-2.5625 3.34375,0 c -0.0208,-0.57291 -0.17448,-1.00781 -0.46093,-1.30469 -0.28126,-0.30207 -0.68751,-0.45312 -1.21875,-0.45312 -0.4948,0 -0.88543,0.15105 -1.17188,0.45312 -0.28125,0.30209 -0.44532,0.73699 -0.49219,1.30469 m 7.20313,5.14063 0,-8.49219 2.10937,0 0,1.45312 c 0.29687,-0.58332 0.64323,-1.01041 1.03907,-1.28125 0.39582,-0.27603 0.86718,-0.41405 1.41406,-0.41406 0.0885,1e-5 0.15624,0.003 0.20312,0.008 0.0521,1e-5 0.0937,0.003 0.125,0.008 l 0.008,2.30468 -0.75782,0 c -0.61979,1e-5 -1.08594,0.16147 -1.39843,0.48438 -0.31251,0.32292 -0.46876,0.80209 -0.46875,1.4375 l 0,4.49219 -2.27344,0"
           id="text5737" />
        <path
           style="fill:black;fill-opacity:1;fill-rule:evenodd;stroke:none"
           d="m 787.5,172.5 0,-15 -15,7.5 15,7.5 z"
           id="path5745" />
        <path
           style="fill:none;stroke:black;stroke-width:3;stroke-linecap:butt;stroke-linejoin:miter;stroke-miterlimit:4;stroke-opacity:1"
           d="m 810,150 0,15 -30,0"
           id="path5747" />
        <g
           id="g5790">
          <text
             xml:space="preserve"
             style="font-size:16px;font-style:normal;font-variant:normal;font-weight:bold;font-stretch:normal;text-align:center;line-height:125%;writing-mode:lr-tb;text-anchor:middle;fill:black;fill-opacity:1;stroke:none;font-family:Swis721 BT"
             x="31.8125"
             y="201.19531"
             id="text5753"
             sodipodi:linespacing="125%"><tspan
               sodipodi:role="line"
               id="tspan5755"
               x="31.8125"
               y="201.19531">Shift</tspan></text>
          <path
             style="fill:none;stroke:black;stroke-width:2;stroke-linecap:butt;stroke-linejoin:miter;stroke-miterlimit:4;stroke-opacity:1;stroke-dasharray:none"
             d="m 27.25,207.125 -11.25,15 7.5,0 0,7.5 7.5,0 0,-7.5 7.5,0 -11.25,-15 z"
             id="path5757" />
        </g>
        <g
           id="g5795"
           transform="translate(727.5,0)">
          <text
             sodipodi:linespacing="125%"
             id="text5797"
             y="201.19531"
             x="31.8125"
             style="font-size:16px;font-style:normal;font-variant:normal;font-weight:bold;font-stretch:normal;text-align:center;line-height:125%;writing-mode:lr-tb;text-anchor:middle;fill:black;fill-opacity:1;stroke:none;font-family:Swis721 BT"
             xml:space="preserve"><tspan
               y="201.19531"
               x="31.8125"
               id="tspan5799"
               sodipodi:role="line">Shift</tspan></text>
          <path
             id="path5801"
             d="m 27.25,207.125 -11.25,15 7.5,0 0,7.5 7.5,0 0,-7.5 7.5,0 -11.25,-15 z"
             style="fill:none;stroke:black;stroke-width:2;stroke-linecap:butt;stroke-linejoin:miter;stroke-miterlimit:4;stroke-opacity:1;stroke-dasharray:none" />
        </g>
        <path
           style="font-size:16px;font-style:normal;font-variant:normal;font-weight:bold;font-stretch:normal;text-align:center;line-height:125%;writing-mode:lr-tb;text-anchor:middle;fill:black;fill-opacity:1;stroke:none;font-family:Swis721 BT"
           d="m 18,271.78906 c -0.08855,1.3073 -0.593761,2.34636 -1.515625,3.11719 -0.916675,0.77083 -2.114591,1.15625 -3.59375,1.15625 -1.703129,0 -3.0286489,-0.53125 -3.9765625,-1.59375 C 7.971353,273.40625 7.4999993,271.91667 7.5,270 c -7e-7,-1.95833 0.4817696,-3.45832 1.4453125,-4.5 0.9635386,-1.04166 2.3489535,-1.56249 4.1562505,-1.5625 1.468742,10e-6 2.627595,0.35939 3.476562,1.07813 0.854156,0.71355 1.322906,1.72396 1.40625,3.03125 l -2.335937,0 c -0.09897,-0.65104 -0.364592,-1.14583 -0.796875,-1.48438 -0.4323,-0.34374 -1.015633,-0.51562 -1.75,-0.51562 -1.041672,0 -1.833338,0.33594 -2.375,1.00781 -0.541671,0.67188 -0.8125036,1.65365 -0.8125005,2.94531 -3.1e-6,1.25 0.2682255,2.21615 0.8046875,2.89844 0.541662,0.68229 1.309891,1.02344 2.304688,1.02344 0.718743,0 1.307284,-0.18229 1.765625,-0.54688 0.458324,-0.36979 0.755199,-0.89843 0.890625,-1.58594 l 2.320312,0 m 5.46875,4.01563 c -0.208338,0.005 -0.458338,0.013 -0.75,0.0234 -0.286462,0.0156 -0.468754,0.0234 -0.546875,0.0234 -0.869794,0 -1.466148,-0.16146 -1.789062,-0.48437 -0.31771,-0.32813 -0.476564,-0.97136 -0.476563,-1.92969 l 0,-4.59375 -1.125,0 0,-1.59375 1.125,0 0,-2.32031 2.25,0 0,2.32031 1.3125,0 0,1.59375 -1.3125,0 0,4.70313 c -3e-6,0.22396 0.04948,0.37239 0.148438,0.44531 0.09895,0.0677 0.302079,0.10156 0.609375,0.10156 l 0.554687,0 0,1.71094 m 1.320313,-0.0625 0,-8.49219 2.109375,0 0,1.45313 c 0.296871,-0.58333 0.643225,-1.01041 1.039062,-1.28125 0.395829,-0.27604 0.867182,-0.41406 1.414063,-0.41407 0.08854,10e-6 0.156244,0.003 0.203125,0.008 0.05208,0 0.09374,0.003 0.125,0.008 l 0.0078,2.30469 -0.757812,0 c -0.619797,0 -1.085942,0.16146 -1.398438,0.48437 -0.312503,0.32292 -0.468753,0.80209 -0.46875,1.4375 l 0,4.49219 -2.273437,0 m 6.234375,0 0,-11.50781 2.273437,0 0,11.50781 -2.273437,0"
           id="text5827" />
        <path
           style="font-size:16px;font-style:normal;font-variant:normal;font-weight:bold;font-stretch:normal;text-align:center;line-height:125%;writing-mode:lr-tb;text-anchor:middle;fill:black;fill-opacity:1;stroke:none;font-family:Swis721 BT"
           d="m 162.96875,266.49609 -1.59375,4.89844 3.19531,0 -1.60156,-4.89844 m -1.375,-2.30468 2.73438,0 4.14843,11.50781 -2.48437,0 -0.78125,-2.36719 -4.46094,0 -0.75781,2.36719 -2.49219,0 4.09375,-11.50781 m 7.94531,11.50781 0,-11.50781 2.27344,0 0,11.50781 -2.27344,0 m 8.10157,0.0625 c -0.20834,0.005 -0.45834,0.013 -0.75,0.0234 -0.28647,0.0156 -0.46876,0.0234 -0.54688,0.0234 -0.86979,0 -1.46615,-0.16145 -1.78906,-0.48437 -0.31771,-0.32813 -0.47657,-0.97135 -0.47656,-1.92969 l 0,-4.59375 -1.125,0 0,-1.59375 1.125,0 0,-2.32031 2.25,0 0,2.32031 1.3125,0 0,1.59375 -1.3125,0 0,4.70313 c -10e-6,0.22396 0.0495,0.37239 0.14843,0.44531 0.099,0.0677 0.30208,0.10156 0.60938,0.10156 l 0.55469,0 0,1.71094"
           id="text5831" />
        <path
           style="font-size:16px;font-style:normal;font-variant:normal;font-weight:bold;font-stretch:normal;text-align:center;line-height:125%;writing-mode:lr-tb;text-anchor:middle;fill:black;fill-opacity:1;stroke:none;font-family:Swis721 BT"
           d="m 612.96875,266.53906 -1.59375,4.89844 3.19531,0 -1.60156,-4.89844 m -1.375,-2.30468 2.73438,0 4.14843,11.50781 -2.48437,0 -0.78125,-2.36719 -4.46094,0 -0.75781,2.36719 -2.49219,0 4.09375,-11.50781 m 7.94531,11.50781 0,-11.50781 2.27344,0 0,11.50781 -2.27344,0 m 8.10157,0.0625 c -0.20834,0.005 -0.45834,0.013 -0.75,0.0234 -0.28647,0.0156 -0.46876,0.0234 -0.54688,0.0234 -0.86979,0 -1.46615,-0.16146 -1.78906,-0.48437 -0.31771,-0.32813 -0.47657,-0.97136 -0.47656,-1.92969 l 0,-4.59375 -1.125,0 0,-1.59375 1.125,0 0,-2.32031 2.25,0 0,2.32031 1.3125,0 0,1.59375 -1.3125,0 0,4.70313 c -10e-6,0.22396 0.0495,0.37239 0.14843,0.44531 0.099,0.0677 0.30208,0.10156 0.60938,0.10156 l 0.55469,0 0,1.71094"
           id="text5835"
           sodipodi:nodetypes="cccccccccccccccccccsssccccccccccccsccc" />
        <path
           style="font-size:16px;font-style:normal;font-variant:normal;font-weight:bold;font-stretch:normal;text-align:center;line-height:125%;writing-mode:lr-tb;text-anchor:middle;fill:black;fill-opacity:1;stroke:none;font-family:Swis721 BT"
           d="m 828,271.78906 c -0.0886,1.3073 -0.59376,2.34636 -1.51562,3.11719 -0.91668,0.77083 -2.1146,1.15625 -3.59375,1.15625 -1.70313,0 -3.02865,-0.53125 -3.97657,-1.59375 C 817.97135,273.40625 817.5,271.91667 817.5,270 c 0,-1.95833 0.48177,-3.45832 1.44531,-4.5 0.96354,-1.04166 2.34896,-1.56249 4.15625,-1.5625 1.46874,10e-6 2.6276,0.35939 3.47657,1.07813 0.85415,0.71355 1.3229,1.72396 1.40625,3.03125 l -2.33594,0 c -0.099,-0.65104 -0.36459,-1.14583 -0.79688,-1.48438 -0.4323,-0.34374 -1.01563,-0.51562 -1.75,-0.51562 -1.04167,0 -1.83334,0.33594 -2.375,1.00781 -0.54167,0.67188 -0.8125,1.65365 -0.8125,2.94531 0,1.25 0.26823,2.21615 0.80469,2.89844 0.54166,0.68229 1.30989,1.02344 2.30469,1.02344 0.71874,0 1.30728,-0.18229 1.76562,-0.54688 0.45833,-0.36979 0.7552,-0.89843 0.89063,-1.58594 l 2.32031,0 m 5.46875,4.01563 c -0.20834,0.005 -0.45834,0.013 -0.75,0.0234 -0.28646,0.0156 -0.46875,0.0234 -0.54687,0.0234 -0.8698,0 -1.46615,-0.16146 -1.78907,-0.48437 -0.31771,-0.32813 -0.47656,-0.97136 -0.47656,-1.92969 l 0,-4.59375 -1.125,0 0,-1.59375 1.125,0 0,-2.32031 2.25,0 0,2.32031 1.3125,0 0,1.59375 -1.3125,0 0,4.70313 c 0,0.22396 0.0495,0.37239 0.14844,0.44531 0.0989,0.0677 0.30208,0.10156 0.60937,0.10156 l 0.55469,0 0,1.71094 m 1.32031,-0.0625 0,-8.49219 2.10938,0 0,1.45313 c 0.29687,-0.58333 0.64322,-1.01041 1.03906,-1.28125 0.39583,-0.27604 0.86718,-0.41406 1.41406,-0.41407 0.0885,10e-6 0.15625,0.003 0.20313,0.008 0.0521,0 0.0937,0.003 0.125,0.008 l 0.008,2.30469 -0.75781,0 c -0.6198,0 -1.08594,0.16146 -1.39844,0.48437 -0.3125,0.32292 -0.46875,0.80209 -0.46875,1.4375 l 0,4.49219 -2.27344,0 m 6.23438,0 0,-11.50781 2.27344,0 0,11.50781 -2.27344,0"
           id="text5839" />
        <path
           style="font-size:16px;font-style:normal;font-variant:normal;font-weight:bold;font-stretch:normal;text-align:center;line-height:125%;writing-mode:lr-tb;text-anchor:middle;fill:black;fill-opacity:1;stroke:none;font-family:Swis721 BT"
           d="m 108.94531,264.01953 -3.29687,-11.50781 2.45312,0 1.96875,8.11719 1.66407,-8.11719 2.52343,0 1.66407,8.11719 1.96875,-8.11719 2.42968,0 -3.28906,11.50781 -2.25781,0 -1.78125,-8.8125 -1.78906,8.8125 -2.25782,0 m 12.55469,-9.4375 0,-2.07031 2.27344,0 0,2.07031 -2.27344,0 m 0,9.4375 0,-8.49219 2.27344,0 0,8.49219 -2.27344,0 m 4.29688,0 0,-8.49219 2.22656,0 0,1.00782 c 0.3177,-0.41145 0.6927,-0.71875 1.125,-0.92188 0.43228,-0.20832 0.91405,-0.31249 1.44531,-0.3125 0.93749,1e-5 1.63801,0.2448 2.10156,0.73438 0.46874,0.48438 0.70312,1.21615 0.70313,2.19531 l 0,5.78906 -2.27344,0 0,-5.13281 c -1e-5,-0.60937 -0.10417,-1.04427 -0.3125,-1.30469 -0.20313,-0.26041 -0.53646,-0.39062 -1,-0.39062 -0.53646,0 -0.96094,0.16146 -1.27344,0.48437 -0.3125,0.31772 -0.46875,0.75261 -0.46875,1.30469 l 0,5.03906 -2.27343,0 m -19.14844,20 0,-11.50781 2.36719,0 0,4.72656 4.49218,-4.72656 2.96094,0 -4.59375,4.65625 5.00781,6.85156 -2.89062,0 -3.75,-5.26562 -1.22656,1.21875 0,4.04687 -2.36719,0 m 16.28906,-2.57812 2.26563,0 c -0.22918,0.89583 -0.69272,1.59896 -1.39063,2.10937 -0.69271,0.50521 -1.53907,0.75781 -2.53906,0.75781 -1.22917,0 -2.20313,-0.41145 -2.92188,-1.23437 -0.71875,-0.82812 -1.07812,-1.94792 -1.07812,-3.35938 0,-1.39062 0.35416,-2.48697 1.0625,-3.28906 0.70833,-0.80207 1.67708,-1.20311 2.90625,-1.20312 1.30208,10e-6 2.30728,0.39584 3.01562,1.1875 0.70833,0.78646 1.06249,1.90886 1.0625,3.36718 -1e-5,0.16147 -0.003,0.28386 -0.008,0.36719 -1e-5,0.0781 -0.005,0.15365 -0.0156,0.22656 l -5.67188,0 c 0.0312,0.66667 0.19271,1.16928 0.48438,1.50782 0.29687,0.33854 0.72135,0.50781 1.27343,0.50781 0.39062,0 0.71093,-0.0755 0.96094,-0.22656 0.24999,-0.15625 0.44791,-0.39583 0.59375,-0.71875 m -3.3125,-2.5625 3.34375,0 c -0.0208,-0.57291 -0.17449,-1.00781 -0.46094,-1.30469 -0.28125,-0.30208 -0.6875,-0.45312 -1.21875,-0.45313 -0.49479,1e-5 -0.88542,0.15105 -1.17187,0.45313 -0.28126,0.30209 -0.44532,0.73698 -0.49219,1.30469 m 7.53906,8.54687 0,-1.83594 c 0.0729,0.0104 0.14844,0.0182 0.22657,0.0234 0.0781,0.005 0.17968,0.008 0.30468,0.008 0.44792,0 0.78385,-0.10677 1.00782,-0.32031 0.22395,-0.20833 0.33593,-0.52344 0.33593,-0.94531 0,-0.0312 -0.005,-0.0703 -0.0156,-0.11719 -0.0104,-0.0469 -0.0208,-0.0859 -0.0312,-0.11719 l -3.0625,-8.59375 2.5,0 1.78906,6.125 1.74219,-6.125 2.39062,0 -3.49218,10.01563 c -0.26043,0.75 -0.58595,1.26041 -0.97657,1.53125 -0.39063,0.27604 -0.97656,0.41406 -1.75781,0.41406 -0.14063,0 -0.29167,-0.005 -0.45312,-0.0156 -0.16147,-0.0104 -0.33074,-0.026 -0.50782,-0.0469"
           id="text5872" />
        <path
           style="font-size:16px;font-style:normal;font-variant:normal;font-weight:bold;font-stretch:normal;text-align:center;line-height:125%;writing-mode:lr-tb;text-anchor:middle;fill:black;fill-opacity:1;stroke:none;font-family:Swis721 BT"
           d="m 708.94531,264.01953 -3.29687,-11.50781 2.45312,0 1.96875,8.11719 1.66407,-8.11719 2.52343,0 1.66407,8.11719 1.96875,-8.11719 2.42968,0 -3.28906,11.50781 -2.25781,0 -1.78125,-8.8125 -1.78906,8.8125 -2.25782,0 m 12.55469,-9.4375 0,-2.07031 2.27344,0 0,2.07031 -2.27344,0 m 0,9.4375 0,-8.49219 2.27344,0 0,8.49219 -2.27344,0 m 4.29688,0 0,-8.49219 2.22656,0 0,1.00782 c 0.3177,-0.41145 0.6927,-0.71875 1.125,-0.92188 0.43228,-0.20832 0.91405,-0.31249 1.44531,-0.3125 0.93749,1e-5 1.63801,0.2448 2.10156,0.73438 0.46874,0.48438 0.70312,1.21615 0.70313,2.19531 l 0,5.78906 -2.27344,0 0,-5.13281 c -10e-6,-0.60937 -0.10417,-1.04427 -0.3125,-1.30469 -0.20313,-0.26041 -0.53646,-0.39062 -1,-0.39062 -0.53646,0 -0.96094,0.16146 -1.27344,0.48437 -0.3125,0.31772 -0.46875,0.75261 -0.46875,1.30469 l 0,5.03906 -2.27343,0 m -19.14844,20 0,-11.50781 2.36719,0 0,4.72656 4.49218,-4.72656 2.96094,0 -4.59375,4.65625 5.00781,6.85156 -2.89062,0 -3.75,-5.26562 -1.22656,1.21875 0,4.04687 -2.36719,0 m 16.28906,-2.57812 2.26563,0 c -0.22918,0.89583 -0.69272,1.59896 -1.39063,2.10937 -0.69271,0.50521 -1.53907,0.75781 -2.53906,0.75781 -1.22917,0 -2.20313,-0.41145 -2.92188,-1.23437 -0.71875,-0.82812 -1.07812,-1.94792 -1.07812,-3.35938 0,-1.39062 0.35416,-2.48697 1.0625,-3.28906 0.70833,-0.80207 1.67708,-1.20311 2.90625,-1.20312 1.30208,10e-6 2.30728,0.39584 3.01562,1.1875 0.70833,0.78646 1.06249,1.90886 1.0625,3.36718 -10e-6,0.16147 -0.003,0.28386 -0.008,0.36719 -10e-6,0.0781 -0.005,0.15365 -0.0156,0.22656 l -5.67188,0 c 0.0312,0.66667 0.19271,1.16928 0.48438,1.50782 0.29687,0.33854 0.72135,0.50781 1.27343,0.50781 0.39062,0 0.71093,-0.0755 0.96094,-0.22656 0.24999,-0.15625 0.44791,-0.39583 0.59375,-0.71875 m -3.3125,-2.5625 3.34375,0 c -0.0208,-0.57291 -0.17449,-1.00781 -0.46094,-1.30469 -0.28125,-0.30208 -0.6875,-0.45312 -1.21875,-0.45313 -0.49479,1e-5 -0.88542,0.15105 -1.17187,0.45313 -0.28126,0.30209 -0.44532,0.73698 -0.49219,1.30469 m 7.53906,8.54687 0,-1.83594 c 0.0729,0.0104 0.14844,0.0182 0.22657,0.0234 0.0781,0.005 0.17968,0.008 0.30468,0.008 0.44792,0 0.78385,-0.10677 1.00782,-0.32031 0.22395,-0.20833 0.33593,-0.52344 0.33593,-0.94531 0,-0.0312 -0.005,-0.0703 -0.0156,-0.11719 -0.0104,-0.0469 -0.0208,-0.0859 -0.0312,-0.11719 l -3.0625,-8.59375 2.5,0 1.78906,6.125 1.74219,-6.125 2.39062,0 -3.49218,10.01563 c -0.26043,0.75 -0.58595,1.26041 -0.97657,1.53125 -0.39063,0.27604 -0.97656,0.41406 -1.75781,0.41406 -0.14063,0 -0.29167,-0.005 -0.45312,-0.0156 -0.16147,-0.0104 -0.33074,-0.026 -0.50782,-0.0469"
           id="text5878" />
        <path
           style="font-size:16px;font-style:normal;font-variant:normal;font-weight:bold;font-stretch:normal;text-align:center;line-height:125%;writing-mode:lr-tb;text-anchor:middle;fill:black;fill-opacity:1;stroke:none;font-family:Swis721 BT"
           d="m 759.98438,275.60938 0,-11.50782 3.5,0 2.28906,8.75782 2.25781,-8.75782 3.51563,0 0,11.50782 -2.21875,0 0,-9.28125 -2.33594,9.28125 -2.42188,0 -2.36718,-9.28125 0,9.28125 -2.21875,0 m 19.00781,-2.57813 2.26562,0 c -0.22917,0.89584 -0.69271,1.59896 -1.39062,2.10938 -0.69272,0.5052 -1.53907,0.75781 -2.53906,0.75781 -1.22917,0 -2.20313,-0.41146 -2.92188,-1.23438 -0.71875,-0.82812 -1.07813,-1.94791 -1.07812,-3.35937 -10e-6,-1.39062 0.35416,-2.48697 1.0625,-3.28906 0.70833,-0.80208 1.67708,-1.20312 2.90625,-1.20313 1.30207,10e-6 2.30728,0.39584 3.01562,1.1875 0.70833,0.78647 1.06249,1.90886 1.0625,3.36719 -10e-6,0.16146 -0.003,0.28386 -0.008,0.36719 -10e-6,0.0781 -0.005,0.15364 -0.0156,0.22656 l -5.67187,0 c 0.0312,0.66667 0.1927,1.16927 0.48437,1.50781 0.29687,0.33854 0.72135,0.50781 1.27344,0.50781 0.39062,0 0.71093,-0.0755 0.96094,-0.22656 0.24999,-0.15625 0.44791,-0.39583 0.59375,-0.71875 m -3.3125,-2.5625 3.34375,0 c -0.0208,-0.57291 -0.17449,-1.00781 -0.46094,-1.30469 -0.28126,-0.30207 -0.68751,-0.45312 -1.21875,-0.45312 -0.4948,0 -0.88542,0.15105 -1.17187,0.45312 -0.28126,0.30209 -0.44532,0.73699 -0.49219,1.30469 m 7.20312,5.14063 0,-8.49219 2.22657,0 0,1.00781 c 0.3177,-0.41145 0.6927,-0.71874 1.125,-0.92187 0.43228,-0.20833 0.91405,-0.3125 1.44531,-0.3125 0.93749,0 1.63801,0.2448 2.10156,0.73437 0.46874,0.48438 0.70312,1.21615 0.70313,2.19531 l 0,5.78907 -2.27344,0 0,-5.13282 c -10e-6,-0.60937 -0.10418,-1.04426 -0.3125,-1.30468 -0.20313,-0.26041 -0.53647,-0.39062 -1,-0.39063 -0.53647,10e-6 -0.96094,0.16147 -1.27344,0.48438 -0.3125,0.31771 -0.46875,0.7526 -0.46875,1.30468 l 0,5.03907 -2.27344,0 m 17.13282,-8.49219 0,8.49219 -2.22657,0 0,-1.00782 c -0.32292,0.41146 -0.70052,0.72136 -1.13281,0.92969 -0.42709,0.20312 -0.90886,0.30469 -1.44531,0.30469 -0.9323,0 -1.63282,-0.24479 -2.10156,-0.73438 -0.46355,-0.48958 -0.69532,-1.22135 -0.69532,-2.19531 l 0,-5.78906 2.27344,0 0,5.13281 c 0,0.60417 0.10156,1.03646 0.30469,1.29688 0.20312,0.25521 0.53906,0.38281 1.00781,0.38281 0.53124,0 0.95312,-0.15885 1.26563,-0.47656 0.3177,-0.32292 0.47655,-0.76042 0.47656,-1.3125 l 0,-5.02344 2.27344,0"
           id="text5884" />
      </g>
    </g>
    <text
       xml:space="preserve"
       style="font-size:40px;font-style:normal;font-variant:normal;font-weight:normal;font-stretch:normal;text-align:center;line-height:125%;writing-mode:lr-tb;text-anchor:middle;fill:#000000;fill-opacity:1;stroke:none;stroke-width:1px;stroke-linecap:butt;stroke-linejoin:miter;stroke-opacity:1;font-family:Bitstream Vera Sans;-inkscape-font-specification:Bitstream Vera Sans"
       x="503.28125"
       y="114.09448"
       id="title"
       sodipodi:linespacing="125%"
       inkscape:label="#text2687"><tspan
         sodipodi:role="line"
         id="tspan2689"
         x="503.28125"
         y="114.09448">Keyboard Title</tspan></text>
  </g>
</svg>
